<?xml version="1.0" standalone="no"?>
<!DOCTYPE svg PUBLIC "-//W3C//DTD SVG 20010904//EN"
 "http://www.w3.org/TR/2001/REC-SVG-20010904/DTD/svg10.dtd">
<svg version="1.0" xmlns="http://www.w3.org/2000/svg"
 width="3219.000000pt" height="3219.000000pt" viewBox="0 0 3219.000000 3219.000000"
 preserveAspectRatio="xMidYMid meet">
<metadata>
Created by potrace 1.11, written by Peter Selinger 2001-2013
</metadata>
<g transform="translate(0.000000,3219.000000) scale(0.100000,-0.100000)"
fill="#000000" stroke="none">
<path d="M14899 28072 c-42 -37 -130 -112 -195 -168 -142 -120 -1264 -1079
-1415 -1208 -58 -50 -130 -112 -160 -137 -76 -65 -1259 -1076 -1289 -1103 -14
-12 -74 -64 -135 -115 -60 -51 -135 -115 -165 -141 -62 -54 -496 -425 -1115
-954 -231 -197 -445 -380 -475 -406 -30 -26 -311 -267 -625 -535 -313 -268
-581 -497 -595 -508 -14 -12 -54 -47 -90 -77 -36 -30 -67 -57 -70 -60 -3 -3
-66 -57 -140 -121 -186 -158 -909 -777 -1285 -1098 -170 -146 -346 -298 -390
-337 -44 -40 -130 -115 -191 -166 -61 -51 -190 -159 -287 -241 l-175 -147 0
-704 c1 -387 -3 -709 -6 -715 -4 -6 -10 -9 -14 -7 -4 2 -36 7 -72 10 -100 10
-229 26 -290 36 -30 5 -71 12 -90 15 -34 5 -122 21 -175 31 -14 2 -65 14 -113
25 -48 12 -95 23 -104 24 -9 2 -50 13 -90 24 -40 11 -84 22 -98 25 -14 3 -36
8 -50 11 -14 4 -32 8 -40 9 -9 1 -21 5 -28 10 -6 4 -12 5 -12 1 0 -3 -8 -1
-18 4 -11 6 -31 13 -45 16 -15 3 -39 7 -54 10 -14 3 -34 10 -44 15 -10 6 -22
10 -28 10 -11 0 -59 -42 -140 -121 -25 -25 -62 -56 -81 -69 -28 -20 -350 -290
-629 -528 -30 -26 -75 -64 -100 -86 -26 -21 -57 -48 -71 -59 -14 -12 -88 -75
-165 -140 -77 -65 -149 -126 -160 -136 -11 -10 -146 -125 -300 -255 -154 -131
-360 -306 -459 -389 -98 -84 -244 -208 -325 -277 -403 -343 -740 -627 -1076
-905 -203 -169 -440 -365 -527 -436 l-156 -130 0 -2508 c0 -1379 3 -2513 7
-2520 6 -10 20 -5 57 17 114 70 293 139 459 177 95 22 148 27 288 27 181 -1
200 -2 402 -38 62 -11 214 -65 291 -103 191 -94 340 -248 404 -419 27 -73 34
-113 35 -207 0 -100 -8 -148 -38 -222 -104 -255 -356 -413 -767 -478 -64 -11
-397 -13 -467 -4 -32 4 -80 10 -108 13 -130 13 -276 47 -435 101 -116 40 -110
38 -127 36 -10 -1 -12 -609 -12 -2836 0 -1559 4 -2837 8 -2840 7 -4 96 9 226
35 28 5 66 12 85 15 19 3 71 12 115 20 44 8 98 17 120 20 22 3 51 8 65 11 14
2 39 7 55 10 51 8 139 24 161 28 12 2 39 7 60 11 47 7 50 7 234 40 80 14 161
28 180 31 19 3 85 14 145 26 61 11 119 21 130 23 11 1 36 5 55 9 64 11 374 65
410 71 31 5 56 9 170 30 23 4 289 49 355 60 17 3 41 8 55 10 28 6 32 7 195 34
66 12 131 23 145 26 13 2 42 7 65 10 22 3 47 8 55 10 8 2 215 38 460 79 245
42 454 78 465 80 11 2 40 7 65 11 25 4 52 9 60 10 8 1 35 6 60 10 25 4 52 9
60 10 8 1 35 6 60 10 25 4 52 9 61 10 9 2 34 6 55 9 22 4 129 22 239 40 110
19 218 37 240 41 76 13 101 17 245 41 80 14 156 27 170 29 14 2 68 11 120 20
52 9 104 18 115 20 11 1 90 14 175 29 85 15 167 29 183 31 15 3 41 7 57 10 17
3 42 7 58 10 15 2 41 6 57 9 17 3 165 28 330 55 165 28 309 53 320 55 11 2 40
7 65 11 25 4 54 9 65 11 10 2 35 6 55 9 20 3 47 8 60 10 14 3 39 7 55 10 17 2
41 7 55 9 14 3 95 16 180 30 85 15 166 28 180 30 14 3 43 7 65 11 22 3 47 7
55 10 8 2 33 6 55 10 55 8 574 95 605 101 14 3 41 7 60 10 19 2 71 11 115 19
44 8 96 17 115 20 19 3 46 7 60 10 14 3 41 7 60 10 19 3 60 10 90 16 30 6 73
13 95 15 22 3 155 25 295 49 140 25 272 47 294 51 21 3 46 7 55 9 9 1 36 6 61
10 25 4 54 9 65 11 11 3 36 7 55 10 19 3 76 12 125 20 50 8 101 17 115 19 43
7 324 55 355 61 17 3 44 7 60 10 17 2 109 17 205 34 96 16 192 32 214 36 21 3
48 8 60 10 11 2 37 7 56 10 19 2 58 9 85 14 28 5 66 12 85 15 19 3 46 7 60 10
14 3 41 7 60 10 19 3 60 10 90 15 30 5 69 12 85 14 17 3 73 12 125 21 52 9
106 18 120 20 36 6 380 64 410 70 66 11 339 56 370 61 19 3 58 9 85 14 28 5
64 12 80 14 17 3 111 19 210 36 99 17 192 33 208 35 63 11 84 14 115 20 17 3
47 7 65 10 17 3 59 10 92 16 33 6 74 13 90 16 17 2 68 11 115 19 47 8 101 17
120 20 34 4 185 30 226 38 12 2 39 7 60 10 22 4 64 11 94 16 54 9 94 16 155
26 17 2 55 9 85 15 30 6 69 12 86 14 36 6 320 53 350 59 12 2 39 7 60 11 49 7
84 13 154 25 30 5 69 12 85 14 63 10 102 17 155 26 30 5 69 12 85 14 17 3 84
14 150 26 66 11 136 23 155 26 39 6 184 31 215 37 18 4 98 17 135 22 28 4 96
15 120 20 45 9 205 36 240 41 19 3 58 9 85 14 28 5 64 11 80 14 17 2 73 11
125 21 52 9 106 18 120 20 14 2 40 7 58 10 17 3 46 7 62 10 17 3 44 7 60 10
17 3 42 7 58 10 92 15 451 76 472 80 13 3 42 7 65 10 38 5 56 8 115 20 14 3
41 8 60 11 37 5 215 34 240 39 8 1 35 6 60 10 25 4 54 9 65 11 11 3 36 7 55
10 19 3 46 7 60 10 14 2 41 7 60 10 19 2 58 9 85 14 56 11 91 16 150 25 22 4
47 8 55 10 8 2 33 7 55 10 23 3 52 8 65 10 14 3 45 8 70 11 25 3 47 7 50 9 3
2 30 6 60 10 30 4 58 9 61 11 4 2 27 6 50 9 24 3 80 12 124 20 44 7 94 16 110
19 96 15 223 37 241 40 12 3 39 7 60 10 22 4 107 18 189 32 83 14 164 28 180
30 17 3 109 19 205 35 96 17 189 32 205 35 17 2 55 9 85 14 30 5 71 12 90 15
19 3 46 7 60 10 14 3 40 7 58 10 17 3 44 7 60 10 15 2 43 7 62 10 19 3 46 7
60 10 14 3 39 7 55 9 17 3 109 19 205 35 96 17 192 33 214 37 21 3 46 7 55 9
9 1 36 6 61 10 25 4 54 9 65 12 11 2 36 6 55 9 19 2 127 20 240 40 113 19 219
37 235 40 17 2 41 6 55 9 14 3 41 7 60 10 19 3 60 10 90 15 30 5 69 12 85 14
30 5 192 32 250 42 77 14 263 45 285 49 14 2 40 6 58 9 36 7 71 12 122 21 19
3 58 10 85 15 28 6 70 12 95 15 25 3 81 12 125 21 44 8 96 17 115 20 19 3 46
7 60 10 31 5 435 73 470 79 14 2 68 11 120 20 52 9 107 18 121 20 15 3 94 16
175 30 82 14 165 28 184 31 39 6 132 22 170 29 13 3 42 7 65 10 22 3 47 8 55
10 8 2 33 7 55 10 23 3 52 8 65 10 14 3 54 10 90 15 36 6 76 13 90 16 14 2 41
7 60 10 19 3 42 7 50 9 8 2 38 7 65 10 28 4 57 8 65 10 8 2 31 7 50 10 19 3
46 7 60 10 14 3 41 7 60 10 19 3 47 8 62 11 15 3 39 7 55 9 15 2 42 6 59 9 57
10 268 45 309 51 22 4 47 8 55 10 8 3 33 7 55 10 22 4 76 13 120 20 44 8 98
17 120 20 22 4 76 13 120 20 44 8 95 17 113 20 73 12 100 16 157 26 33 6 71
12 85 14 14 2 106 18 205 35 99 17 192 33 208 36 15 2 42 6 60 9 17 3 55 10
82 15 28 5 68 12 90 15 22 3 146 24 275 46 129 22 249 42 265 44 25 4 96 16
115 20 3 0 27 4 53 9 27 4 58 9 70 12 12 2 39 6 62 9 22 3 47 8 55 10 8 2 33
6 55 10 22 3 65 10 95 15 60 11 61 11 200 34 112 19 118 20 240 41 52 9 109
19 125 21 17 2 71 12 120 20 50 9 101 18 115 19 14 2 337 56 719 120 381 63
709 118 729 121 19 3 44 8 56 10 11 2 41 7 66 10 25 3 52 7 60 9 8 2 29 6 45
9 224 36 290 48 296 52 4 2 8 604 9 1337 2 1369 4 1706 14 3177 4 470 9 1224
11 1675 9 1418 24 3421 30 3765 2 107 6 389 10 625 3 237 8 535 10 664 l4 233
-322 320 c-294 292 -614 602 -792 768 -38 36 -99 93 -135 127 -36 33 -78 73
-95 88 -16 14 -50 46 -75 69 -47 43 -463 414 -515 458 -16 14 -95 81 -175 149
-268 229 -721 599 -941 769 -1313 1013 -2513 1776 -3829 2436 -259 130 -486
239 -615 295 -49 22 -98 44 -108 50 -31 17 -285 129 -457 201 -175 73 -246
103 -295 124 -168 71 -602 235 -830 314 -82 28 -159 56 -170 61 -30 13 -398
134 -715 234 -25 7 -56 16 -70 19 -14 3 -101 28 -195 56 -166 49 -240 70 -550
151 -189 49 -585 144 -680 163 -11 3 -49 11 -85 20 -71 16 -390 82 -442 91
-18 3 -40 8 -48 10 -8 2 -32 6 -53 9 -21 4 -71 12 -110 20 -97 19 -146 28
-182 32 -16 2 -50 8 -75 13 -25 6 -63 13 -85 16 -121 16 -147 20 -190 29 -24
4 -85 14 -140 22 -22 3 -51 7 -65 9 -47 8 -235 34 -280 39 -94 12 -136 17
-167 21 -28 4 -142 17 -263 31 -25 2 -61 6 -80 9 -19 2 -62 7 -95 10 -33 3
-79 8 -102 10 -46 5 -119 11 -228 20 -38 4 -86 8 -105 10 -19 2 -75 6 -125 10
-49 4 -110 8 -135 10 -25 2 -94 6 -155 10 -60 3 -134 8 -162 10 -29 2 -126 6
-215 10 -90 4 -201 9 -248 11 -47 1 -240 6 -430 9 -190 3 -457 7 -595 10
l-250 5 -76 -68z m366 -4456 c76 -8 143 -16 175 -22 14 -2 41 -7 60 -10 58 -9
271 -63 335 -86 670 -231 1087 -709 1068 -1223 -5 -136 -13 -186 -51 -295
-134 -392 -512 -719 -1032 -893 -72 -24 -166 -50 -220 -61 -14 -3 -36 -7 -50
-10 -155 -34 -304 -49 -510 -49 -135 -1 -312 9 -363 19 -38 8 -71 13 -112 19
-65 10 -245 55 -325 82 -312 104 -571 261 -760 459 -290 304 -390 666 -285
1029 59 203 220 431 412 587 64 51 174 129 218 154 179 99 348 172 485 209 3
1 24 7 47 13 53 16 228 53 273 58 19 2 51 7 70 9 19 3 66 8 105 11 38 3 71 7
72 8 5 4 332 -2 388 -8z m15249 -4228 c-6 -1063 -15 -2411 -19 -3033 -3 -352
-7 -1052 -10 -1555 -3 -503 -7 -1160 -10 -1460 -2 -300 -7 -1029 -11 -1620 -4
-591 -7 -1164 -8 -1272 -1 -108 -4 -200 -8 -203 -3 -4 -21 -9 -40 -11 -18 -3
-73 -12 -123 -20 -49 -8 -102 -17 -117 -20 -108 -17 -328 -54 -358 -60 -14 -2
-41 -7 -60 -9 -19 -3 -44 -8 -56 -10 -12 -3 -39 -7 -60 -10 -21 -3 -77 -13
-124 -22 -47 -8 -101 -17 -120 -20 -19 -2 -59 -9 -88 -14 -29 -6 -66 -12 -82
-14 -25 -3 -102 -17 -165 -29 -11 -2 -42 -7 -70 -10 -27 -4 -68 -11 -90 -16
-22 -5 -62 -12 -90 -15 -27 -4 -57 -8 -65 -10 -14 -4 -29 -7 -112 -20 -18 -3
-58 -10 -88 -15 -30 -5 -68 -12 -85 -14 -16 -3 -70 -12 -120 -21 -49 -9 -106
-18 -125 -21 -32 -4 -111 -17 -177 -29 -16 -3 -44 -8 -63 -11 -19 -3 -69 -11
-111 -19 -42 -8 -98 -17 -125 -21 -27 -3 -52 -8 -55 -10 -3 -1 -28 -6 -55 -9
-27 -4 -80 -12 -119 -20 -38 -7 -90 -16 -115 -20 -57 -8 -90 -13 -115 -19 -11
-2 -56 -9 -100 -16 -44 -7 -89 -14 -100 -16 -11 -2 -33 -6 -50 -9 -16 -3 -41
-7 -55 -10 -14 -3 -40 -7 -57 -10 -32 -5 -54 -8 -125 -20 -18 -3 -44 -8 -58
-10 -14 -2 -65 -11 -115 -19 -49 -9 -108 -18 -130 -21 -22 -4 -48 -9 -58 -11
-10 -3 -35 -8 -55 -10 -20 -2 -87 -13 -148 -24 -61 -11 -129 -22 -150 -25 -21
-4 -75 -13 -119 -20 -189 -34 -322 -57 -355 -61 -19 -3 -46 -7 -60 -9 -14 -3
-52 -10 -85 -15 -33 -5 -72 -12 -88 -15 -62 -11 -162 -28 -237 -40 -14 -2
-119 -20 -235 -40 -115 -20 -223 -38 -240 -40 -25 -2 -287 -47 -360 -61 -10
-2 -35 -6 -55 -9 -20 -3 -47 -7 -60 -10 -61 -12 -87 -16 -110 -20 -29 -3 -154
-24 -190 -31 -14 -2 -43 -7 -65 -10 -22 -3 -46 -7 -53 -10 -8 -2 -37 -7 -65
-10 -29 -3 -59 -8 -67 -11 -8 -4 -22 -7 -30 -8 -15 -1 -120 -18 -130 -20 -3
-1 -30 -5 -60 -10 -30 -5 -57 -9 -60 -10 -3 0 -26 -4 -51 -8 -65 -11 -81 -13
-209 -36 -63 -11 -132 -22 -152 -25 -66 -10 -110 -17 -132 -22 -11 -2 -37 -7
-56 -10 -19 -3 -75 -12 -125 -21 -49 -8 -103 -17 -120 -20 -16 -2 -66 -11
-110 -18 -44 -8 -96 -17 -115 -20 -142 -24 -340 -57 -365 -61 -16 -3 -66 -12
-110 -19 -44 -8 -95 -17 -112 -20 -18 -3 -46 -7 -63 -10 -16 -3 -45 -7 -62
-10 -18 -3 -44 -7 -58 -10 -14 -3 -41 -7 -60 -10 -19 -3 -60 -10 -90 -15 -30
-5 -71 -12 -90 -15 -19 -3 -46 -7 -60 -10 -14 -3 -41 -7 -60 -10 -19 -3 -60
-10 -90 -16 -30 -6 -71 -12 -90 -15 -19 -2 -42 -6 -50 -9 -8 -2 -37 -7 -65
-10 -27 -4 -57 -8 -65 -10 -8 -2 -28 -6 -45 -9 -79 -13 -290 -48 -480 -81
-115 -20 -226 -38 -245 -41 -19 -3 -42 -7 -50 -9 -8 -2 -35 -7 -60 -10 -42 -5
-59 -8 -120 -20 -14 -3 -41 -8 -60 -11 -19 -3 -75 -12 -125 -20 -49 -8 -103
-17 -120 -20 -28 -4 -114 -19 -160 -28 -11 -2 -42 -7 -68 -10 -27 -4 -59 -9
-70 -12 -56 -11 -75 -14 -117 -20 -25 -3 -65 -10 -90 -15 -25 -5 -58 -11 -75
-14 -16 -2 -73 -11 -125 -20 -112 -19 -132 -22 -184 -30 -21 -4 -48 -9 -60
-11 -11 -2 -32 -6 -46 -8 -14 -3 -68 -12 -120 -20 -52 -9 -108 -19 -125 -21
-58 -11 -140 -24 -170 -29 -16 -3 -86 -14 -155 -26 -69 -12 -137 -23 -152 -25
-16 -3 -40 -7 -55 -10 -16 -2 -82 -13 -148 -25 -66 -11 -136 -23 -155 -26 -19
-3 -46 -7 -60 -10 -64 -12 -76 -14 -110 -19 -20 -3 -47 -8 -60 -10 -21 -4 -95
-16 -245 -41 -16 -2 -41 -6 -55 -9 -14 -3 -38 -7 -55 -9 -16 -3 -124 -21 -240
-41 -115 -20 -221 -38 -235 -40 -14 -2 -79 -13 -145 -24 -66 -11 -137 -23
-159 -27 -21 -3 -48 -7 -60 -10 -11 -2 -129 -22 -261 -44 -132 -22 -251 -42
-265 -45 -14 -2 -68 -11 -120 -20 -52 -9 -108 -18 -125 -21 -246 -42 -506 -86
-530 -90 -16 -2 -41 -6 -55 -9 -14 -3 -40 -7 -57 -10 -18 -3 -46 -7 -63 -10
-16 -3 -45 -7 -62 -10 -18 -3 -58 -10 -88 -15 -30 -5 -68 -12 -85 -14 -16 -3
-73 -12 -125 -21 -132 -22 -144 -24 -240 -41 -100 -17 -114 -20 -200 -34 -36
-5 -76 -12 -90 -15 -29 -5 -193 -33 -230 -39 -14 -3 -81 -14 -150 -26 -69 -12
-141 -24 -160 -26 -19 -2 -46 -6 -60 -9 -36 -8 -62 -12 -106 -20 -47 -7 -61
-9 -184 -30 -52 -9 -106 -18 -120 -20 -36 -6 -211 -35 -240 -41 -14 -2 -36 -6
-50 -8 -224 -38 -340 -58 -360 -62 -31 -5 -61 -10 -125 -20 -27 -4 -52 -8 -55
-9 -3 0 -26 -4 -51 -8 -25 -4 -59 -10 -75 -13 -16 -3 -38 -7 -49 -9 -11 -2
-63 -10 -115 -19 -52 -9 -108 -18 -125 -21 -68 -11 -91 -15 -115 -20 -13 -3
-40 -7 -60 -10 -20 -3 -45 -7 -57 -9 -11 -3 -38 -7 -59 -11 -72 -11 -99 -15
-124 -20 -14 -3 -41 -7 -60 -10 -41 -6 -263 -44 -300 -51 -14 -3 -38 -7 -55
-9 -42 -6 -265 -44 -295 -50 -13 -2 -42 -7 -65 -10 -22 -3 -47 -8 -55 -10 -8
-2 -35 -7 -60 -10 -25 -3 -52 -8 -60 -10 -8 -2 -35 -7 -60 -10 -25 -3 -67 -10
-95 -15 -27 -5 -63 -12 -80 -15 -16 -3 -39 -7 -50 -9 -30 -6 -102 -17 -128
-21 -12 -1 -105 -17 -207 -34 -102 -18 -198 -34 -215 -37 -16 -2 -41 -6 -55
-9 -14 -3 -41 -7 -60 -10 -19 -3 -48 -8 -65 -11 -16 -3 -43 -7 -60 -10 -16 -2
-41 -6 -55 -9 -14 -3 -38 -7 -55 -9 -16 -3 -97 -17 -180 -31 -82 -14 -161 -28
-175 -30 -14 -2 -95 -15 -180 -30 -85 -14 -166 -28 -180 -30 -14 -2 -106 -18
-205 -35 -99 -17 -193 -33 -210 -35 -16 -3 -41 -7 -55 -10 -14 -3 -41 -7 -60
-10 -19 -3 -60 -10 -90 -15 -30 -5 -68 -12 -85 -14 -16 -3 -84 -15 -150 -26
-66 -12 -136 -23 -155 -25 -19 -3 -46 -8 -60 -11 -14 -3 -40 -8 -57 -10 -18
-2 -99 -16 -180 -29 -82 -14 -161 -28 -178 -31 -16 -2 -55 -9 -85 -14 -30 -5
-68 -12 -85 -14 -53 -9 -219 -37 -245 -42 -14 -2 -36 -6 -50 -9 -42 -7 -213
-36 -240 -40 -20 -3 -160 -26 -300 -50 -14 -2 -42 -7 -64 -10 -21 -4 -46 -8
-55 -10 -9 -1 -36 -6 -61 -10 -25 -4 -54 -9 -65 -12 -11 -2 -33 -6 -50 -8 -16
-2 -124 -20 -240 -40 -115 -20 -226 -38 -245 -41 -31 -5 -225 -38 -290 -50
-14 -2 -41 -7 -60 -10 -19 -3 -42 -7 -50 -9 -8 -2 -37 -7 -65 -11 -27 -3 -59
-8 -70 -10 -11 -2 -31 -6 -45 -9 -30 -5 -353 -59 -420 -70 -14 -2 -79 -13
-145 -25 -66 -11 -136 -23 -155 -26 -19 -2 -71 -11 -115 -19 -44 -8 -98 -17
-120 -20 -22 -4 -76 -13 -120 -20 -44 -8 -93 -17 -110 -19 -46 -8 -77 -13
-265 -45 -96 -16 -197 -33 -225 -36 -27 -4 -52 -9 -55 -10 -3 -2 -24 -6 -46
-9 -22 -4 -49 -8 -59 -10 -11 -2 -40 -7 -65 -11 -25 -4 -54 -9 -65 -11 -10 -2
-35 -6 -55 -9 -20 -3 -47 -7 -60 -10 -13 -3 -40 -7 -60 -10 -20 -3 -45 -7 -55
-9 -11 -2 -40 -7 -65 -11 -25 -4 -54 -9 -65 -11 -11 -2 -38 -6 -60 -10 -22 -3
-82 -13 -132 -23 -84 -16 -93 -16 -94 -2 -3 79 -1 3073 2 3076 3 2 27 7 54 10
28 3 86 10 130 16 441 54 844 222 1150 480 447 376 668 914 611 1492 -4 37
-11 78 -16 91 -5 13 -7 26 -4 28 5 6 -37 173 -66 258 -34 100 -123 281 -186
377 -337 518 -921 849 -1632 927 -12 2 -24 5 -27 8 -5 4 -9 2280 -5 2864 l0
91 47 7 c27 4 57 9 68 11 27 5 93 16 130 21 17 3 71 12 120 21 50 8 104 17
120 19 17 3 80 13 140 24 61 10 128 21 150 25 41 6 199 32 245 41 14 2 41 7
60 10 19 2 58 9 85 14 28 5 70 12 95 15 25 3 52 8 60 10 8 2 33 7 55 10 23 3
50 7 60 9 11 2 40 7 65 11 25 4 52 9 61 10 9 2 34 6 55 9 51 8 212 36 244 42
14 2 41 7 60 9 19 3 60 10 90 15 30 5 70 12 88 15 17 3 44 7 60 9 15 3 70 12
122 21 52 9 107 18 123 21 15 2 42 6 60 9 17 3 57 10 87 15 30 5 71 12 90 15
19 3 46 7 60 10 14 3 41 7 60 10 19 3 49 8 65 11 17 3 44 7 60 10 17 2 41 6
55 9 14 3 41 7 60 10 19 3 46 7 60 10 14 3 39 7 55 9 17 3 116 19 220 36 105
17 204 33 220 36 17 2 53 9 80 14 28 6 66 12 85 14 19 3 87 14 150 25 63 11
133 22 155 25 22 4 81 14 130 22 50 9 104 18 120 21 17 2 56 9 87 14 98 17 98
17 215 35 21 3 45 7 53 9 8 3 33 7 55 10 22 3 108 17 190 31 83 14 164 27 180
30 17 2 42 7 57 10 15 3 41 7 58 9 18 3 39 6 49 9 9 3 41 8 71 11 30 4 57 8
60 10 3 2 30 6 60 10 30 3 62 8 70 10 8 2 31 7 50 10 19 3 42 8 50 10 8 2 35
6 60 9 25 3 55 8 66 10 12 2 37 7 55 10 119 19 288 47 309 51 14 3 45 8 70 11
25 3 52 7 60 9 8 2 31 7 50 10 19 3 46 7 60 10 14 3 39 7 55 9 17 3 127 21
245 40 118 20 233 38 255 41 22 4 47 8 55 10 8 3 33 7 55 10 22 3 49 8 61 10
12 3 39 7 60 10 21 3 89 14 149 25 61 10 130 22 155 25 25 3 52 8 60 10 8 2
35 7 60 10 25 3 52 8 60 10 8 2 33 6 55 10 22 3 94 15 160 26 118 20 142 24
208 34 31 5 108 19 172 30 17 2 39 7 50 9 11 2 41 6 66 10 25 4 59 9 75 12 16
2 54 9 84 14 30 5 70 12 88 15 36 6 72 12 120 20 17 3 47 7 65 10 17 3 43 7
57 10 14 3 40 7 58 10 17 3 47 7 65 10 17 3 43 7 57 10 14 3 41 7 60 10 19 3
46 7 60 10 14 3 39 7 55 9 17 3 71 12 120 20 50 9 108 18 130 21 22 4 78 13
125 21 47 8 101 17 120 20 19 3 46 7 60 10 28 5 57 10 110 18 19 3 44 7 55 10
11 2 42 7 68 10 27 4 59 9 70 12 12 2 38 7 57 10 19 3 114 19 210 35 96 16
191 32 210 34 19 3 46 7 60 10 14 3 39 8 55 10 64 10 93 14 275 45 69 12 134
23 145 25 11 1 43 6 70 10 28 4 53 9 56 11 4 2 27 6 50 9 24 3 58 8 74 11 42
7 145 24 175 30 14 2 41 7 60 10 19 3 60 9 90 14 30 5 73 12 95 15 22 3 51 8
65 11 14 2 36 6 50 9 14 2 68 11 120 20 52 9 111 18 130 21 19 3 46 7 60 10
58 11 69 13 106 18 22 4 68 11 104 17 36 6 79 13 95 16 17 2 82 13 145 24 63
11 130 22 148 25 27 3 273 44 665 109 33 6 75 13 102 19 11 2 42 7 68 10 27 4
58 9 70 12 12 2 39 6 62 9 22 3 47 8 55 10 8 2 35 7 60 10 25 3 52 8 60 10 8
2 33 6 55 10 22 3 81 12 130 21 50 8 104 17 120 20 17 3 41 7 55 9 14 2 41 7
60 10 19 3 46 7 60 10 14 3 39 7 55 9 145 24 284 47 301 50 12 2 39 7 60 11
22 3 50 8 64 10 75 13 519 86 540 90 28 4 112 18 120 20 3 1 30 5 60 9 30 5
64 10 75 12 78 15 193 34 206 34 14 0 17 -14 18 -82 1 -45 3 -84 5 -87 2 -3 7
-37 11 -76 4 -38 8 -72 10 -75 2 -3 6 -23 9 -45 4 -22 13 -65 22 -95 8 -30 17
-66 20 -79 3 -13 23 -73 46 -135 174 -475 544 -884 1001 -1105 109 -53 291
-123 350 -135 12 -3 63 -14 113 -25 50 -11 118 -23 150 -26 32 -3 70 -8 84
-10 38 -8 255 -8 350 0 611 50 1168 384 1512 909 107 163 234 452 262 597 2
13 9 44 15 69 15 67 23 122 36 240 7 61 8 334 1 365 -2 11 -7 47 -10 80 -8 71
-51 270 -71 325 -8 22 -13 40 -12 41 5 2 302 52 382 65 17 2 41 6 55 9 14 3
41 7 60 10 19 3 60 10 90 15 30 5 71 12 90 15 19 3 46 7 60 10 14 3 39 7 55 9
17 3 86 14 155 26 69 12 137 23 153 25 15 3 42 7 60 10 17 3 46 8 62 11 17 2
55 9 85 14 30 5 71 12 90 15 19 3 49 8 65 11 17 3 44 7 60 10 17 2 55 9 85 14
30 5 73 12 95 16 22 3 213 35 425 70 212 36 401 67 420 70 33 4 117 19 170 29
13 3 42 7 65 10 54 8 74 11 180 30 50 9 106 18 125 20 19 3 46 7 60 10 14 2
36 7 50 9 26 5 84 15 135 21 16 3 65 11 110 19 44 9 103 18 130 22 28 3 52 7
55 9 3 2 30 6 60 10 30 3 62 8 70 10 8 2 30 7 48 10 59 9 87 14 117 19 17 3
86 15 155 26 69 11 139 23 155 25 98 17 144 25 180 30 22 3 63 10 90 15 28 5
64 12 80 14 17 3 73 12 125 21 52 9 111 18 130 21 33 6 608 100 660 109 62 11
218 37 245 41 17 3 42 7 58 9 15 3 42 7 60 10 17 3 43 7 57 10 14 3 41 7 60
10 19 3 60 10 90 15 30 5 70 12 88 15 52 8 79 13 242 40 85 14 166 28 180 30
14 2 68 11 120 20 52 9 109 18 125 21 66 11 99 16 173 29 60 10 92 15 120 19
15 3 70 12 122 21 52 9 109 18 125 21 17 2 41 6 55 9 14 3 39 7 55 9 45 8 81
13 185 31 120 20 139 23 240 39 19 3 44 7 55 10 27 5 100 17 128 21 23 3 380
62 432 71 17 3 39 7 50 9 11 1 65 10 120 19 55 9 116 19 135 22 19 3 41 7 48
10 8 2 37 7 65 10 29 4 55 8 59 10 3 2 33 7 65 10 32 4 60 8 62 10 27 25 29
-8 25 -518z"/>
<path d="M27088 17555 c-2 -2 -41 -5 -88 -9 -47 -3 -96 -7 -110 -10 -14 -3
-49 -11 -78 -17 -124 -25 -297 -97 -415 -173 -63 -40 -220 -170 -252 -208
-159 -189 -233 -314 -293 -500 -31 -94 -37 -119 -48 -193 -3 -22 -7 -51 -10
-65 -6 -36 -6 -226 1 -287 9 -89 41 -231 65 -288 4 -11 20 -50 34 -86 29 -70
88 -175 149 -263 46 -68 207 -230 267 -271 25 -16 54 -38 64 -47 28 -26 252
-134 326 -159 118 -38 267 -61 400 -61 75 0 202 9 230 17 8 2 26 6 40 9 153
26 379 128 520 234 168 126 305 292 396 476 51 105 98 239 110 316 3 19 8 38
10 41 3 6 17 177 18 229 2 118 -33 314 -79 442 -169 469 -633 829 -1113 864
-42 3 -92 7 -109 8 -18 2 -34 2 -35 1z"/>
<path d="M9469 15195 c-2 -2 -42 -6 -89 -9 -81 -6 -261 -37 -325 -57 -431
-130 -686 -278 -971 -563 -223 -224 -356 -421 -477 -711 -64 -155 -130 -418
-144 -581 -13 -156 -5 -516 13 -545 3 -5 7 -25 19 -101 3 -18 8 -41 11 -50 3
-9 7 -27 9 -40 3 -13 12 -48 21 -78 94 -314 248 -592 459 -825 39 -43 72 -81
75 -84 16 -19 194 -174 245 -213 139 -105 296 -194 467 -264 105 -43 307 -106
378 -118 19 -3 62 -10 95 -16 139 -24 395 -32 555 -17 70 7 89 9 158 22 15 3
41 8 59 11 72 12 294 78 348 104 11 5 43 18 71 29 172 66 395 210 580 376 139
125 350 377 406 485 7 14 29 54 50 90 20 36 51 99 68 140 18 41 36 84 41 95
36 83 95 291 113 400 28 164 33 244 30 425 -2 91 -5 174 -8 186 -2 12 -7 45
-11 75 -3 30 -8 61 -10 69 -2 8 -7 31 -10 50 -30 186 -145 482 -262 675 -173
286 -467 579 -742 741 -90 53 -276 144 -294 144 -7 0 -17 4 -22 9 -14 12 -186
67 -285 90 -109 25 -128 29 -225 42 -78 10 -389 22 -396 14z"/>
</g>
</svg>
