<?xml version="1.0" encoding="iso-8859-1"?>
<!-- Generator: Adobe Illustrator 19.0.0, SVG Export Plug-In . SVG Version: 6.00 Build 0)  -->
<svg version="1.1" id="Layer_1" xmlns="http://www.w3.org/2000/svg" xmlns:xlink="http://www.w3.org/1999/xlink" x="0px" y="0px"
	 viewBox="0 0 512 512" style="enable-background:new 0 0 512 512;" xml:space="preserve">
<path style="fill:#2197D8;" d="M461.333,124.34V95.669H0v28.671c11.782,0,21.327,9.545,21.327,21.327S11.782,167.007,0,167.007
	v31.991c11.782,0,21.327,9.545,21.327,21.339c0,11.782-9.545,21.327-21.327,21.327v32.003c11.782,0,21.327,9.545,21.327,21.339
	c0,11.782-9.545,21.327-21.327,21.327v28.671h50.667h356.107l54.558-177.999c-11.794,0-21.339-9.557-21.339-21.339
	C439.993,133.885,449.538,124.34,461.333,124.34z"/>
<rect x="71.995" y="138.335" style="fill:#E09B2D;" width="317.331" height="28.671"/>
<path style="fill:#2BA5F7;" d="M512,387.672v28.659H50.667v-28.659c11.782,0,21.327-9.557,21.327-21.339
	s-9.545-21.327-21.327-21.327v-32.003c11.782,0,21.327-9.557,21.327-21.339c0-11.782-9.545-21.327-21.327-21.327v-32.003
	c11.782,0,21.327-9.545,21.327-21.327c0-11.782-9.545-21.339-21.327-21.339v-28.659h21.327h317.331h72.007H512v28.659
	c-11.782,0-21.339,9.557-21.339,21.339c0,11.782,9.557,21.327,21.339,21.327v32.003c-11.782,0-21.339,9.545-21.339,21.327
	s9.557,21.339,21.339,21.339v32.003c-11.782,0-21.339,9.545-21.339,21.327S500.218,387.672,512,387.672z"/>
<rect x="122.662" y="210.33" style="fill:#F7B239;" width="317.331" height="164.003"/>
<g>
	<path style="fill:#4D4D4D;" d="M375.878,326.122H186.79c-5.036,0-9.119-4.083-9.119-9.119s4.083-9.119,9.119-9.119h189.088
		c5.038,0,9.119,4.083,9.119,9.119S380.914,326.122,375.878,326.122z"/>
	<path style="fill:#4D4D4D;" d="M375.878,276.792H186.79c-5.036,0-9.119-4.083-9.119-9.119s4.083-9.119,9.119-9.119h189.088
		c5.038,0,9.119,4.083,9.119,9.119S380.914,276.792,375.878,276.792z"/>
</g>
<g>
</g>
<g>
</g>
<g>
</g>
<g>
</g>
<g>
</g>
<g>
</g>
<g>
</g>
<g>
</g>
<g>
</g>
<g>
</g>
<g>
</g>
<g>
</g>
<g>
</g>
<g>
</g>
<g>
</g>
</svg>
