<?xml version="1.0" encoding="iso-8859-1"?>
<!-- Generator: Adobe Illustrator 19.0.0, SVG Export Plug-In . SVG Version: 6.00 Build 0)  -->
<svg version="1.1" id="Layer_1" xmlns="http://www.w3.org/2000/svg" xmlns:xlink="http://www.w3.org/1999/xlink" x="0px" y="0px"
	 viewBox="0 0 512 512" style="enable-background:new 0 0 512 512;" xml:space="preserve">
<path style="fill:#9B5A50;" d="M35.31,35.31h423.724c19.501,0,35.31,15.809,35.31,35.31v70.621H0V70.621
	C0,51.119,15.809,35.31,35.31,35.31z"/>
<path style="fill:#AA6455;" d="M459.034,105.931H35.31C15.809,105.931,0,90.122,0,70.621v370.759c0,19.501,15.809,35.31,35.31,35.31
	h423.724c19.501,0,35.31-15.809,35.31-35.31V141.241C494.345,121.739,478.536,105.931,459.034,105.931z"/>
<g>
	<path style="fill:#9B5A50;" d="M149.845,141.241c0-4.879-3.948-8.828-8.828-8.828h-8.759c-4.879,0-8.828,3.948-8.828,8.828
		s3.948,8.828,8.828,8.828h8.759C145.897,150.069,149.845,146.121,149.845,141.241z"/>
	<path style="fill:#9B5A50;" d="M193.655,141.241c0-4.879-3.948-8.828-8.828-8.828h-8.767c-4.879,0-8.828,3.948-8.828,8.828
		s3.948,8.828,8.828,8.828h8.767C189.707,150.069,193.655,146.121,193.655,141.241z"/>
	<path style="fill:#9B5A50;" d="M150.888,432.552h-8.767c-4.879,0-8.828,3.948-8.828,8.828c0,4.879,3.948,8.828,8.828,8.828h8.767
		c4.879,0,8.828-3.948,8.828-8.828C159.715,436.5,155.767,432.552,150.888,432.552z"/>
	<path style="fill:#9B5A50;" d="M194.689,432.552h-8.758c-4.879,0-8.828,3.948-8.828,8.828c0,4.879,3.948,8.828,8.828,8.828h8.759
		c4.879,0,8.828-3.948,8.828-8.828C203.518,436.5,199.569,432.552,194.689,432.552z"/>
	<path style="fill:#9B5A50;" d="M281.267,141.241c0-4.879-3.948-8.828-8.828-8.828h-8.767c-4.879,0-8.828,3.948-8.828,8.828
		s3.948,8.828,8.828,8.828h8.767C277.319,150.069,281.267,146.121,281.267,141.241z"/>
	<path style="fill:#9B5A50;" d="M238.5,432.552h-8.767c-4.879,0-8.828,3.948-8.828,8.828c0,4.879,3.948,8.828,8.828,8.828h8.767
		c4.879,0,8.828-3.948,8.828-8.828C247.328,436.5,243.379,432.552,238.5,432.552z"/>
	<path style="fill:#9B5A50;" d="M63.276,432.552h-8.767c-4.879,0-8.828,3.948-8.828,8.828c0,4.879,3.948,8.828,8.828,8.828h8.767
		c4.879,0,8.828-3.948,8.828-8.828C72.104,436.5,68.156,432.552,63.276,432.552z"/>
	<path style="fill:#9B5A50;" d="M62.232,141.241c0-4.879-3.948-8.828-8.828-8.828h-8.758c-4.879,0-8.828,3.948-8.828,8.828
		s3.948,8.828,8.828,8.828h8.758C58.284,150.069,62.232,146.121,62.232,141.241z"/>
	<path style="fill:#9B5A50;" d="M21.267,432.043c-2.146-0.431-4.242-1.129-6.232-2.078c-4.448-2.112-9.681-0.224-11.767,4.163
		c-2.103,4.405-0.233,9.673,4.163,11.767c3.302,1.578,6.776,2.733,10.336,3.457c0.595,0.12,1.181,0.172,1.759,0.172
		c4.113,0,7.801-2.888,8.647-7.078C29.138,437.664,26.044,433.009,21.267,432.043z"/>
	<path style="fill:#9B5A50;" d="M0,141.668c2.303,1.151,4.625,2.285,7.017,3.202c1.035,0.396,2.094,0.577,3.147,0.577
		c3.552,0,6.905-2.164,8.25-5.681c1.732-4.552-0.543-9.655-5.103-11.396c-2.388-0.905-4.715-1.974-6.957-3.164
		c-2.024-1.085-4.281-1.23-6.354-0.692V141.668z"/>
	<path style="fill:#9B5A50;" d="M282.302,432.552h-8.759c-4.879,0-8.828,3.948-8.828,8.828c0,4.879,3.948,8.828,8.828,8.828h8.759
		c4.879,0,8.828-3.948,8.828-8.828C291.129,436.5,287.181,432.552,282.302,432.552z"/>
	<path style="fill:#9B5A50;" d="M106.044,141.241c0-4.879-3.948-8.828-8.828-8.828h-8.767c-4.879,0-8.828,3.948-8.828,8.828
		s3.948,8.828,8.828,8.828h8.767C102.094,150.069,106.044,146.121,106.044,141.241z"/>
	<path style="fill:#9B5A50;" d="M107.078,432.552h-8.758c-4.879,0-8.828,3.948-8.828,8.828c0,4.879,3.948,8.828,8.828,8.828h8.758
		c4.879,0,8.828-3.948,8.828-8.828C115.905,436.5,111.957,432.552,107.078,432.552z"/>
	<path style="fill:#9B5A50;" d="M237.457,141.241c0-4.879-3.948-8.828-8.828-8.828h-8.759c-4.879,0-8.828,3.948-8.828,8.828
		s3.948,8.828,8.828,8.828h8.759C233.508,150.069,237.457,146.121,237.457,141.241z"/>
	<path style="fill:#9B5A50;" d="M459.034,338.879c-4.879,0-8.828,3.948-8.828,8.828v8.759c0,4.879,3.948,8.828,8.828,8.828
		s8.828-3.948,8.828-8.828v-8.759C467.862,342.827,463.914,338.879,459.034,338.879z"/>
	<path style="fill:#9B5A50;" d="M459.034,295.069c-4.879,0-8.828,3.948-8.828,8.828v8.767c0,4.879,3.948,8.828,8.828,8.828
		s8.828-3.948,8.828-8.828v-8.767C467.862,299.017,463.914,295.069,459.034,295.069z"/>
	<path style="fill:#9B5A50;" d="M459.034,382.681c-4.879,0-8.828,3.948-8.828,8.828v8.767c0,4.879,3.948,8.828,8.828,8.828
		s8.828-3.948,8.828-8.828v-8.767C467.862,386.63,463.914,382.681,459.034,382.681z"/>
	<path style="fill:#9B5A50;" d="M325.069,141.241c0-4.879-3.948-8.828-8.828-8.828h-8.759c-4.879,0-8.828,3.948-8.828,8.828
		s3.948,8.828,8.828,8.828h8.759C321.121,150.069,325.069,146.121,325.069,141.241z"/>
	<path style="fill:#9B5A50;" d="M459.034,251.267c-4.879,0-8.828,3.948-8.828,8.828v8.759c0,4.879,3.948,8.828,8.828,8.828
		s8.828-3.948,8.828-8.828v-8.759C467.862,255.215,463.914,251.267,459.034,251.267z"/>
	<path style="fill:#9B5A50;" d="M448.387,429.103c-0.905,1.173-2.087,2.103-3.423,2.69c-4.448,1.983-6.457,7.198-4.483,11.656
		c1.465,3.285,4.69,5.241,8.077,5.241c1.19,0,2.414-0.242,3.577-0.759c4-1.775,7.534-4.552,10.216-8.034
		c2.983-3.862,2.276-9.405-1.587-12.38C456.896,424.518,451.345,425.259,448.387,429.103z"/>
	<path style="fill:#9B5A50;" d="M459.034,207.457c-4.879,0-8.828,3.948-8.828,8.828v8.767c0,4.879,3.948,8.828,8.828,8.828
		s8.828-3.948,8.828-8.828v-8.767C467.862,211.405,463.914,207.457,459.034,207.457z"/>
	<path style="fill:#9B5A50;" d="M459.034,163.655c-4.879,0-8.828,3.948-8.828,8.828v8.759c0,4.879,3.948,8.828,8.828,8.828
		s8.828-3.948,8.828-8.828v-8.759C467.862,167.604,463.914,163.655,459.034,163.655z"/>
	<path style="fill:#9B5A50;" d="M369.913,432.552h-8.759c-4.879,0-8.828,3.948-8.828,8.828c0,4.879,3.948,8.828,8.828,8.828h8.759
		c4.879,0,8.828-3.948,8.828-8.828C378.741,436.5,374.793,432.552,369.913,432.552z"/>
	<path style="fill:#9B5A50;" d="M368.879,141.241c0-4.879-3.948-8.828-8.828-8.828h-8.767c-4.879,0-8.828,3.948-8.828,8.828
		s3.948,8.828,8.828,8.828h8.767C364.931,150.069,368.879,146.121,368.879,141.241z"/>
	<path style="fill:#9B5A50;" d="M326.112,432.552h-8.767c-4.879,0-8.828,3.948-8.828,8.828c0,4.879,3.948,8.828,8.828,8.828h8.767
		c4.879,0,8.828-3.948,8.828-8.828C334.94,436.5,330.991,432.552,326.112,432.552z"/>
	<path style="fill:#9B5A50;" d="M413.724,432.552h-8.767c-4.879,0-8.828,3.948-8.828,8.828c0,4.879,3.948,8.828,8.828,8.828h8.767
		c4.879,0,8.828-3.948,8.828-8.828C422.551,436.5,418.603,432.552,413.724,432.552z"/>
	<path style="fill:#9B5A50;" d="M444.466,150.621c1.009,0.371,2.044,0.543,3.06,0.543c3.586,0,6.966-2.207,8.285-5.768
		c1.689-4.577-0.655-9.655-5.224-11.345c-2.948-1.086-6.052-1.638-9.207-1.638h-2.483c-4.879,0-8.828,3.948-8.828,8.828
		s3.948,8.828,8.828,8.828h2.483C442.44,150.069,443.482,150.25,444.466,150.621z"/>
	<path style="fill:#9B5A50;" d="M412.681,141.241c0-4.879-3.948-8.828-8.828-8.828h-8.759c-4.879,0-8.828,3.948-8.828,8.828
		s3.948,8.828,8.828,8.828h8.759C408.733,150.069,412.681,146.121,412.681,141.241z"/>
</g>
<path style="fill:#915046;" d="M494.345,335.448H388.414c-9.751,0-17.655-7.904-17.655-17.655v-52.966
	c0-9.751,7.904-17.655,17.655-17.655h105.931c9.751,0,17.655,7.904,17.655,17.655v52.966
	C512,327.543,504.095,335.448,494.345,335.448z"/>
<circle style="fill:#FFD782;" cx="414.897" cy="291.31" r="17.655"/>
<path style="fill:#915046;" d="M494.345,75.392c-9.383-8.425-21.738-13.599-35.31-13.599H35.31c-4.879,0-8.828,3.948-8.828,8.828
	s3.948,8.828,8.828,8.828h423.724c19.474,0,35.31,15.837,35.31,35.31V75.392z"/>
<g>
</g>
<g>
</g>
<g>
</g>
<g>
</g>
<g>
</g>
<g>
</g>
<g>
</g>
<g>
</g>
<g>
</g>
<g>
</g>
<g>
</g>
<g>
</g>
<g>
</g>
<g>
</g>
<g>
</g>
</svg>
